<?xml version="1.0" encoding="iso-8859-1"?>
<!-- Generator: Adobe Illustrator 19.0.0, SVG Export Plug-In . SVG Version: 6.00 Build 0)  -->
<svg version="1.1" id="Layer_1" xmlns="http://www.w3.org/2000/svg" xmlns:xlink="http://www.w3.org/1999/xlink" x="0px" y="0px"
	 viewBox="0 0 512 512" style="enable-background:new 0 0 512 512;" xml:space="preserve">
<g>
	<g>
		<g>
			<path fill="currentColor" d="M491.102,0H20.898C9.375,0,0,9.375,0,20.898V360.49c0,11.523,9.375,20.898,20.898,20.898h161.959v78.367h-20.898
				c-5.771,0-10.449,4.678-10.449,10.449v20.898c0,11.523,9.375,20.898,20.898,20.898h167.184c11.523,0,20.898-9.375,20.898-20.898
				v-20.898c0-5.771-4.679-10.449-10.449-10.449h-20.898v-78.367h161.959c11.523,0,20.898-9.375,20.898-20.898V20.898
				C512,9.375,502.625,0,491.102,0z M339.593,480.653l0.001,10.449H172.408v-10.449H339.593z M203.755,459.755v-78.367h104.49
				v78.367H203.755z M491.102,360.49H318.694H193.306H20.898v-67.918h470.204V360.49z M491.102,271.673H20.898V20.898h470.204
				V271.673z"/>
			<path fill="currentColor" d="M331.151,155.623l-14.621,14.621l14.778,14.778l14.621-14.621c4.415,2.785,9.323,4.854,14.561,6.048v22.082h20.898
				v-22.083c5.239-1.194,10.146-3.262,14.561-6.048l14.621,14.621l14.778-14.778l-14.621-14.621
				c2.786-4.416,4.855-9.323,6.048-14.562h22.083v-20.898h-22.083c-1.194-5.239-3.262-10.146-6.048-14.562l14.621-14.621
				L410.57,76.201l-14.621,14.621c-4.415-2.786-9.323-4.854-14.561-6.048V62.694H360.49v22.083
				c-5.239,1.194-10.146,3.262-14.561,6.048l-14.621-14.621L316.53,90.981l14.621,14.621c-2.786,4.416-4.855,9.323-6.048,14.562
				H303.02v20.898h22.083C326.297,146.3,328.365,151.207,331.151,155.623z M370.939,104.49c14.404,0,26.122,11.719,26.122,26.122
				s-11.719,26.122-26.122,26.122s-26.122-11.719-26.122-26.122S356.535,104.49,370.939,104.49z"/>
			<rect x="188.082" y="78.367" width="73.143" height="20.898"/>
			<rect x="109.714" y="120.163" width="151.51" height="20.898"/>
			<rect x="57.469" y="161.959" width="203.755" height="20.898"/>
			<rect x="109.714" y="203.755" width="151.51" height="20.898"/>
			<rect x="146.286" y="78.367" width="20.898" height="20.898"/>
			<rect x="67.918" y="203.755" width="20.898" height="20.898"/>
			<rect x="376.163" y="214.204" width="20.898" height="20.898"/>
			<rect x="344.816" y="214.204" width="20.898" height="20.898"/>
		</g>
	</g>
</g>
<g>
</g>
<g>
</g>
<g>
</g>
<g>
</g>
<g>
</g>
<g>
</g>
<g>
</g>
<g>
</g>
<g>
</g>
<g>
</g>
<g>
</g>
<g>
</g>
<g>
</g>
<g>
</g>
<g>
</g>
</svg>
